<svg xmlns="http://www.w3.org/2000/svg" viewBox="0 0 750 500"><g id="freepik--background-complete--inject-226"><path d="M280.63,204.45l2,4.13a.76.76,0,0,0,.56.41l4.57.66a.75.75,0,0,1,.41,1.27l-3.31,3.22a.74.74,0,0,0-.21.65l.78,4.55a.74.74,0,0,1-1.07.78L280.31,218a.76.76,0,0,0-.69,0l-4.08,2.15a.74.74,0,0,1-1.07-.78l.78-4.55a.72.72,0,0,0-.22-.65l-3.3-3.22a.74.74,0,0,1,.41-1.27l4.57-.66a.73.73,0,0,0,.55-.41l2-4.13A.74.74,0,0,1,280.63,204.45Z" style="fill:#e0e0e0"></path><path d="M692.89,87.46l2,4.13a.76.76,0,0,0,.56.41l4.56.66a.74.74,0,0,1,.41,1.26l-3.3,3.22a.74.74,0,0,0-.21.66l.78,4.54a.74.74,0,0,1-1.08.78L692.57,101a.76.76,0,0,0-.69,0l-4.08,2.14a.74.74,0,0,1-1.08-.78l.78-4.54a.76.76,0,0,0-.21-.66L684,93.92a.74.74,0,0,1,.41-1.26L689,92a.76.76,0,0,0,.56-.41l2-4.13A.74.74,0,0,1,692.89,87.46Z" style="fill:#e0e0e0"></path><path d="M285.41,45.91l-.52,2.57a.43.43,0,0,0,.12.37l1.82,1.88a.42.42,0,0,1-.25.72l-2.6.3a.45.45,0,0,0-.33.22l-1.22,2.32a.42.42,0,0,1-.76,0l-1.09-2.38a.42.42,0,0,0-.31-.24l-2.59-.45a.42.42,0,0,1-.21-.72l1.93-1.78a.42.42,0,0,0,.13-.37l-.38-2.59a.43.43,0,0,1,.63-.43l2.28,1.28a.43.43,0,0,0,.4,0l2.35-1.15A.42.42,0,0,1,285.41,45.91Z" style="fill:#e0e0e0"></path><path d="M79.63,190.1l-.77,3.83a.66.66,0,0,0,.17.57l2.73,2.8a.63.63,0,0,1-.38,1.06l-3.89.46a.66.66,0,0,0-.48.33l-1.83,3.46a.62.62,0,0,1-1.12,0L72.42,199a.65.65,0,0,0-.46-.36L68.1,198a.63.63,0,0,1-.32-1.08l2.88-2.65a.63.63,0,0,0,.19-.55l-.55-3.88a.63.63,0,0,1,.93-.64l3.41,1.92a.6.6,0,0,0,.58,0l3.52-1.72A.63.63,0,0,1,79.63,190.1Z" style="fill:#e0e0e0"></path><polygon points="467.4 357.93 423.67 476.16 464.83 475.49 505.99 366.81 467.4 357.93" style="fill:#f5f5f5"></polygon><path d="M719.22,305.13l-21.76,1-6.28,56.63-25.72-53.2L627,329.4s24,57.59,36.68,75.85c0,0,18.66,26.81,43.77,16.38C729.37,412.52,719.22,305.13,719.22,305.13Z" style="fill:#f5f5f5"></path><path d="M545.26,196.94l4.87,81.78c.82,13.91,4.88,34.17,26.81,31.86h0c18.87-3.44,22.62-21.82,21.84-34.79-.38-6.16-.67-11.29-.67-11.93,0,0,20.7-3.2,21-23.89.13-10-1.27-30.62-2.76-49.26a38.54,38.54,0,0,0-38.4-35.47h-2C554.4,156.47,543.42,175.45,545.26,196.94Z" style="fill:#f5f5f5"></path><path d="M598.11,263.86s-13.05.75-26.94-8c0,0,6.56,15.12,27.21,13.28Z" style="fill:#e0e0e0"></path><path d="M581.78,201.67c-.38.44-2.89-1.3-6.35-1.14s-5.9,2-6.3,1.61c-.19-.18.18-1,1.25-1.84a8.62,8.62,0,0,1,5-1.82,8.31,8.31,0,0,1,5.07,1.44C581.57,200.71,582,201.47,581.78,201.67Z" style="fill:#e0e0e0"></path><path d="M579.19,211.69a2.79,2.79,0,0,1-2.7,2.81,2.67,2.67,0,0,1-2.88-2.52,2.8,2.8,0,0,1,2.7-2.82A2.68,2.68,0,0,1,579.19,211.69Z" style="fill:#e0e0e0"></path><path d="M592.14,225c0-.18,2-.52,5.16-.93.81-.08,1.58-.24,1.72-.8a4.15,4.15,0,0,0-.54-2.4l-2.4-6.19c-3.32-8.81-5.73-16-5.37-16.18s3.34,6.9,6.66,15.71c.81,2.17,1.57,4.24,2.3,6.22a4.72,4.72,0,0,1,.42,3.19,2,2,0,0,1-1.34,1.19,6.3,6.3,0,0,1-1.38.19C594.15,225.19,592.15,225.2,592.14,225Z" style="fill:#e0e0e0"></path><path d="M581.82,190.75c-.35.76-3.1.11-6.41.19s-6.06.73-6.43,0c-.16-.35.38-1,1.52-1.7a10.87,10.87,0,0,1,9.79-.13C581.44,189.72,582,190.39,581.82,190.75Z" style="fill:#e0e0e0"></path><path d="M613.41,195.73c-.32.65-3.06.16-6.32.29s-5.94.75-6.34.12c-.17-.3.33-.9,1.43-1.47a11.41,11.41,0,0,1,4.76-1.15,11.72,11.72,0,0,1,4.88.84C613,194.86,613.55,195.42,613.41,195.73Z" style="fill:#e0e0e0"></path><path d="M546.93,212.27c-.35-.15-14.21-4.22-13.78,9.93s14.56,10.79,14.57,10.38S546.93,212.27,546.93,212.27Z" style="fill:#f5f5f5"></path><path d="M543.23,227.35c-.06,0-.24.18-.65.39a2.43,2.43,0,0,1-1.84.09c-1.51-.5-2.85-2.83-3-5.38a8,8,0,0,1,.58-3.55,2.84,2.84,0,0,1,1.79-2,1.26,1.26,0,0,1,1.48.63c.2.39.12.67.19.7s.3-.25.17-.83a1.55,1.55,0,0,0-.59-.87,1.84,1.84,0,0,0-1.37-.32,3.48,3.48,0,0,0-2.51,2.28,8.49,8.49,0,0,0-.73,4c.18,2.84,1.72,5.47,3.79,6a2.63,2.63,0,0,0,2.24-.44C543.22,227.7,543.28,227.38,543.23,227.35Z" style="fill:#e0e0e0"></path><path d="M526.53,190.78c2.58-5.19,2.84-11.17,4-16.84s3.89-11.64,9.19-14l.13,0c4.75-2.32,10.77-2.78,15,.32.46-7.4,6.47-13.67,13.49-16.06s18.58-2.1,25.65.17c5.46,1.75,10.9,5.76,17.6,11.74a70.56,70.56,0,0,1,7.83,8.2l7.6,18.77-4.6,10.46c-.27.71-.55,1.42-.9,2.13v-.05l-3.28,21.58c-.72-5.77-1.75-25.94-2.47-31.71a32.37,32.37,0,0,1-23.78-9c-3.42-3.27-6.22-7.48-10.6-9.27-5.65-2.31-12,.13-17.61,2.54l.22-.24a26,26,0,0,0-7.55,6.32,80.34,80.34,0,0,1-1,34.23c-.42,1.69-1.65,5.18-3.21,5.91-3.09,1.46-4.17-1.71-6.2-3.28-1.49-1.16-3.59-1.18-5.86-1a126.24,126.24,0,0,1-4.93-14.36,12.75,12.75,0,0,1-5.89.82l1.5-4.49a6.59,6.59,0,0,1-2.45,1.33,2.31,2.31,0,0,1-2.48-.87C525.35,193.16,526,191.86,526.53,190.78Z" style="fill:#e0e0e0"></path><path d="M613.29,200.7c-.38.45-2.9-1.29-6.35-1.14s-5.9,2-6.3,1.62c-.19-.19.18-1,1.25-1.85a8.69,8.69,0,0,1,5-1.82A8.38,8.38,0,0,1,612,199C613.08,199.74,613.47,200.5,613.29,200.7Z" style="fill:#e0e0e0"></path><path d="M608.51,211a2.79,2.79,0,0,1-2.7,2.82,2.67,2.67,0,0,1-2.87-2.53,2.78,2.78,0,0,1,2.69-2.81A2.66,2.66,0,0,1,608.51,211Z" style="fill:#e0e0e0"></path><path d="M617.59,162.14c1.89,2.21,4.71,4.15,7.58,3.67a21.37,21.37,0,0,0,3-1.08c1,.55,1,4,.37,5a18.11,18.11,0,0,1-2,2.37c3.5,1.62,6.53.54,10.06-1a17.75,17.75,0,0,1-9.67,14.82c-1.77.87-4,1.42-5.68.45-1.51-.86-2.22-2.63-2.76-4.29a77.59,77.59,0,0,1-3.66-18.78Z" style="fill:#e0e0e0"></path><polygon points="610.08 280.07 598.22 275.69 552.86 274.35 542.33 277.22 543.71 302.87 567.52 318.05 590.6 317.59 605.12 304.36 608.34 291.25 610.08 280.07" style="fill:#f5f5f5"></polygon><path d="M475.54,319.36a154.4,154.4,0,0,1,9.49-17,39.17,39.17,0,0,1,24.44-17.19l38.06-10.32s2.58,25.66,28.76,25.66S603,276.79,603,276.79l47.92,17.51c1.51.59,11.73,4.12,23.61,29.61,11.32,24.27,16.27,36.69,16.27,36.69l-45.2,12.15-3,41.75,2.66,61-137.7-.3-.93-64.33L506,366.81l-2.89,5.44-43-17.25S464.39,342.31,475.54,319.36Z" style="fill:#ebebeb"></path><path d="M505.34,344c-.2,0-.08,14.76.28,33s.8,32.95,1,32.94.08-14.75-.27-33S505.54,344,505.34,344Z" style="fill:#e0e0e0"></path><path d="M593.33,236.52c0,.12-.76.45-2.12.44a8.27,8.27,0,0,1-7.85-6.13c-.34-1.32-.2-2.16-.08-2.16s.28.78.75,1.94a9.06,9.06,0,0,0,7.23,5.65C592.5,236.44,593.3,236.37,593.33,236.52Z" style="fill:#e0e0e0"></path><path d="M718,272.4s2.59-6.41-.57-8.22S694,256.23,691.83,257s-3,1.91-3.57,4.3a34.33,34.33,0,0,1-1.16,4s-2-1.9-5.46-.07c0,0-3.65,1.92-4.17,3.53s.3,3.79,1,5.41,4.7,7.63,4.7,7.63a21.34,21.34,0,0,0,3.38,10.38c3.39,5.32,10,6.76,11,10.6L696.21,320l23.54,13.18s-.38-21.44-.8-30.85-.44-18.84.15-21.89S718.9,272.88,718,272.4Z" style="fill:#f5f5f5"></path><path d="M706,281.39s-.07-.05-.17-.17a3,3,0,0,1-.38-.59,2.7,2.7,0,0,1,.09-2.63l.06.21-2.9-1.07.25-.23c.26.73.54,1.53.85,2.37l0-.08a6.81,6.81,0,0,1,.89,1.14,3.09,3.09,0,0,1,.44,1.51,3.06,3.06,0,0,1-1.77,2.73,3,3,0,0,1-1.77.24,9.05,9.05,0,0,1-1.68-.61,14.19,14.19,0,0,1-3.08-1.91,11.4,11.4,0,0,1-1.78-1.76l.17.11a6.71,6.71,0,0,1-3.75-1.63,4.91,4.91,0,0,1-1.54-3.44l.17.23a7.4,7.4,0,0,1-2.36-1.2,3.46,3.46,0,0,1-.86-.93,2.82,2.82,0,0,1-.26-1.19,18.77,18.77,0,0,1,.35-3.82c.18-1,.36-1.86.49-2.41a4.07,4.07,0,0,1,.25-.84,4.08,4.08,0,0,1-.11.87c-.08.56-.22,1.38-.36,2.42a20.06,20.06,0,0,0-.24,3.75,2.54,2.54,0,0,0,.23,1,3.27,3.27,0,0,0,.77.81,7,7,0,0,0,2.23,1.08l.16.05v.18a4.4,4.4,0,0,0,1.41,3.07,6.18,6.18,0,0,0,3.48,1.47l.1,0,.07.08a11.22,11.22,0,0,0,1.7,1.67,13.8,13.8,0,0,0,3,1.84,7.51,7.51,0,0,0,1.54.58,2.49,2.49,0,0,0,1.48-.19,2.61,2.61,0,0,0,1.52-2.28,3.52,3.52,0,0,0-1.18-2.35l0,0v0c-.29-.85-.56-1.65-.8-2.39l-.13-.38.37.15L705.7,278l.16.07-.1.15a2.55,2.55,0,0,0-.18,2.4C705.81,281.12,706,281.37,706,281.39Z" style="fill:#e0e0e0"></path><path d="M713,270.24a4.52,4.52,0,0,1-1.08-.13c-.69-.12-1.68-.31-2.91-.55l-4.3-.89-2.53-.54a8.06,8.06,0,0,0-2.66-.29,2.61,2.61,0,0,0-2,1.45,10.39,10.39,0,0,0-.89,2.36,33.39,33.39,0,0,0-.85,4.27c-.33,2.47-.47,4-.55,4a4.2,4.2,0,0,1,0-1.09c0-.7.08-1.71.21-3a29.25,29.25,0,0,1,.75-4.35,10.47,10.47,0,0,1,.91-2.49,3.12,3.12,0,0,1,2.34-1.71,8.41,8.41,0,0,1,2.84.31l2.53.57,4.27,1c1.22.29,2.2.53,2.87.71A4.08,4.08,0,0,1,713,270.24Z" style="fill:#e0e0e0"></path><path d="M709.49,265.63a5.11,5.11,0,0,1-1.11-.2l-3-.7c-1.26-.29-2.76-.63-4.43-1-.84-.15-1.72-.31-2.63-.42a6.14,6.14,0,0,0-2.73.16,4.37,4.37,0,0,0-2.09,1.67,9.83,9.83,0,0,0-1.18,2.33,38.11,38.11,0,0,0-1.3,4.31c-.59,2.51-.76,4.1-.84,4.09a3.56,3.56,0,0,1,0-1.12,26,26,0,0,1,.45-3,33.66,33.66,0,0,1,1.21-4.41,10.32,10.32,0,0,1,1.21-2.45,4.81,4.81,0,0,1,2.34-1.87,6.67,6.67,0,0,1,3-.18c.94.13,1.82.29,2.66.46,1.68.34,3.18.73,4.43,1.07s2.25.64,2.94.86A4.79,4.79,0,0,1,709.49,265.63Z" style="fill:#e0e0e0"></path><path d="M717.93,268.06c-.09.12-1.18-.67-2.72-1.21s-2.88-.63-2.88-.79a6.32,6.32,0,0,1,5.6,2Z" style="fill:#e0e0e0"></path><path d="M698.37,260c0,.1-1.21,0-3.11.07a6.73,6.73,0,0,0-3.1,1,5,5,0,0,0-2.09,3.25c-.69,2.85-1.13,5.48-1.43,7.38a23.13,23.13,0,0,1-.54,3.09,15.6,15.6,0,0,1,.17-3.13,59.67,59.67,0,0,1,1.3-7.47,7.42,7.42,0,0,1,.83-2.06,4.67,4.67,0,0,1,1.5-1.47,7,7,0,0,1,3.34-.92,14.07,14.07,0,0,1,2.31.13C698.08,259.86,698.38,259.92,698.37,260Z" style="fill:#e0e0e0"></path><path d="M709,262.66a14,14,0,0,1-5.19-1.32,7,7,0,0,1,2.66.41A7.22,7.22,0,0,1,709,262.66Z" style="fill:#e0e0e0"></path><path d="M690.22,276.8c0,.15-1.53.6-3.1,1.8s-2.44,2.58-2.57,2.49a7.13,7.13,0,0,1,5.67-4.29Z" style="fill:#e0e0e0"></path><path d="M687,273.57c0,.05-.23.32-.76.63a4.74,4.74,0,0,1-2.34.58,6.12,6.12,0,0,1-2.33-.56c-.56-.26-.86-.48-.83-.54s1.43.51,3.16.57S686.91,273.41,687,273.57Z" style="fill:#e0e0e0"></path><path d="M709.55,283.23c0,.1-1.28,0-3.25.56a14.31,14.31,0,0,0-10.48,10.71c-.46,2-.39,3.26-.49,3.25a2.58,2.58,0,0,1-.09-.89,11.6,11.6,0,0,1,.22-2.44,13.89,13.89,0,0,1,10.76-11,11.45,11.45,0,0,1,2.43-.27A2.5,2.5,0,0,1,709.55,283.23Z" style="fill:#e0e0e0"></path><path d="M713.11,305.2a5.85,5.85,0,0,1-2,.43,17.26,17.26,0,0,1-9.55-1.73,5.93,5.93,0,0,1-1.71-1.1,33.09,33.09,0,0,0,6.46,2.13A33.56,33.56,0,0,0,713.11,305.2Z" style="fill:#e0e0e0"></path><polygon points="257.37 328.22 313.87 475.54 272.98 475.61 224.17 355.48 257.37 328.22" style="fill:#f5f5f5"></polygon><path d="M32.27,285l20-6.8,6.31,61.37,38-33.15,23.55,28.47s-39.8,41.55-54.2,47.25c0,0-21.87,10.66-31.16-3.33C27.6,368.06,32.27,285,32.27,285Z" style="fill:#f5f5f5"></path><path d="M224.63,248.33c-.61-14-1.24-28.08-4-41.83s-6.27-27.13-15-38.12l-80.58,5c-3,12.45-6,25.2-4.64,37.94,1.36,12.35,6.86,24.26,6.09,36.66-.54,8.77-4.18,17-6.84,25.36s-4.34,17.65-1,25.79a10.86,10.86,0,0,0,3.91,5.23c2.28,1.47,5.17,1.5,7.88,1.48q48.35-.33,96.64-3Q225.84,275.57,224.63,248.33Z" style="fill:#e0e0e0"></path><path d="M145.66,153.34c7.47-4.16,16.53-4.83,24.93-3.22s16.24,5.34,23.67,9.56c4.18,2.37,8.34,5,11.35,8.7,5.51,6.81,11,18,11.59,26.76.48,7.06-2.08,24.77-5,31.22-2.69,5.91-15.48,10.5-21.8,12l-58.66-67.08A29.42,29.42,0,0,1,145.66,153.34Z" style="fill:#e0e0e0"></path><path d="M135.72,162.54l13.91-2.61c-7.46,18.2-9.18,59.68-13.37,78.89-5.2-7.41-17.31-30-16.75-39S119.16,161.14,135.72,162.54Z" style="fill:#e0e0e0"></path><path d="M128,192.16c.79-13.91,9.9-31,23.78-29.66l32.14,7.91c10.31,2.54,17.24,11.17,18.08,21.76,0,.53.09-.12.08.28l-6.46,83.11L144.89,331h0l5.4-57.41c-.07-6.77-.12-12.16-.12-12.13s-17.8-2.84-21.62-26C126.65,223.94,127.13,207.63,128,192.16Z" style="fill:#f5f5f5"></path><path d="M136.74,211a3,3,0,0,0,2.88,3,2.85,2.85,0,0,0,3-2.71,3,3,0,0,0-2.88-3A2.84,2.84,0,0,0,136.74,211Z" style="fill:#e0e0e0"></path><path d="M131.57,201.22c.37.39,2.61-1.29,5.81-1.31s5.56,1.58,5.9,1.19c.17-.18-.21-.88-1.23-1.61a8.17,8.17,0,0,0-4.73-1.43,7.87,7.87,0,0,0-4.63,1.52C131.71,200.35,131.38,201.05,131.57,201.22Z" style="fill:#e0e0e0"></path><path d="M164.51,210.72a3,3,0,0,0,2.89,3,2.85,2.85,0,0,0,3-2.7,3,3,0,0,0-2.89-3A2.84,2.84,0,0,0,164.51,210.72Z" style="fill:#e0e0e0"></path><path d="M162,201c.38.38,2.62-1.3,5.82-1.31s5.56,1.58,5.9,1.18c.17-.17-.21-.87-1.24-1.61a8.12,8.12,0,0,0-4.72-1.42,7.8,7.8,0,0,0-4.63,1.52C162.11,200.09,161.78,200.8,162,201Z" style="fill:#e0e0e0"></path><path d="M152.17,226.19c0-.18-2-.51-5.21-.91-.81-.08-1.59-.23-1.73-.79a4.15,4.15,0,0,1,.53-2.43l2.38-6.23c3.3-8.89,5.69-16.19,5.33-16.32s-3.33,7-6.63,15.85q-1.2,3.28-2.28,6.27a4.72,4.72,0,0,0-.4,3.21,2,2,0,0,0,1.35,1.19,5.25,5.25,0,0,0,1.39.18C150.14,226.37,152.16,226.37,152.17,226.19Z" style="fill:#e0e0e0"></path><path d="M180.86,253s-7.41,16-30.64,14l-.05-5.46A58.38,58.38,0,0,0,180.86,253Z" style="fill:#ebebeb"></path><path d="M162.87,189.39c.32.87,3.52.44,7.27.87s6.8,1.43,7.3.65c.22-.37-.31-1.19-1.54-2a12.14,12.14,0,0,0-5.42-1.85,12,12,0,0,0-5.68.7C163.42,188.29,162.73,189,162.87,189.39Z" style="fill:#e0e0e0"></path><path d="M132.53,191.42c.57.73,2.77,0,5.42-.09s4.9.45,5.41-.31c.22-.37-.13-1.1-1.12-1.78a7.86,7.86,0,0,0-8.73.33C132.58,190.32,132.28,191.07,132.53,191.42Z" style="fill:#e0e0e0"></path><path d="M134.13,170.93c1.39-3.5,5.2-5.63,9-5.85s7.45,1.17,10.73,3C167.7,176,175,195.2,188.68,203.35c3.37,2,7.72.1,10.6,2.77s4.77,6.95,3.22,10.56a32.64,32.64,0,0,0,4.67-8.05c1-2.94,1.12-6.36-.46-9-1.2-2-3.3-3.58-3.89-5.87-.52-2,.26-4.12.15-6.2a13.64,13.64,0,0,0-2.17-5.9c-5.43-9.41-12.85-17.9-22.37-23.14a39.29,39.29,0,0,0-20.4-5.09,30,30,0,0,0-19.3,7.85c-3,2.87-6.21,5.84-4.6,9.69" style="fill:#e0e0e0"></path><path d="M199,209c.24-.67,12.3-5.14,12.57,7.72.26,12.49-12.37,10.14-12.4,9.78S199,209,199,209Z" style="fill:#f5f5f5"></path><path d="M202.92,221.7c.05,0,.22.15.59.31a2.13,2.13,0,0,0,1.62,0c1.31-.5,2.39-2.62,2.41-4.87a7.36,7.36,0,0,0-.66-3.11,2.54,2.54,0,0,0-1.67-1.64,1.12,1.12,0,0,0-1.28.62c-.16.35-.07.6-.14.63s-.27-.21-.18-.73a1.41,1.41,0,0,1,.48-.79,1.64,1.64,0,0,1,1.2-.34,3.05,3.05,0,0,1,2.3,1.9,7.35,7.35,0,0,1,.82,3.47c0,2.52-1.28,4.89-3.08,5.45a2.33,2.33,0,0,1-2-.3C202.94,222,202.87,221.72,202.92,221.7Z" style="fill:#e0e0e0"></path><path d="M200.77,206.1c.23,3.41.42,7-1.13,10.05s-5.51,5.15-8.5,3.47c-2.43-1.36-3.18-4.45-3.61-7.21-1.25-7.94-1.86-16-3.18-23.92Z" style="fill:#e0e0e0"></path><path d="M160.09,232.2a6.19,6.19,0,0,1-3,9.69,3.65,3.65,0,0,1-2.33.06c-1.31-.48-2-1.91-2.51-3.2l-1.32-3.23a1.48,1.48,0,0,1-.13-1.12,1.46,1.46,0,0,1,1.05-.63l8-2" style="fill:#ebebeb"></path><path d="M154.92,241.56a7.19,7.19,0,0,0,3.64-.49,5.71,5.71,0,0,0,3.17-2.62,4.33,4.33,0,0,0,.47-2.49,7.24,7.24,0,0,0-.66-2.56,6.9,6.9,0,0,0-1.52-2.07l-.22-.19-.26.09c-5.3,1.92-9.44,2.9-9.4,3.13s4.32-.38,9.71-2.24l-.48-.09a5.85,5.85,0,0,1,1.3,1.78,5.18,5.18,0,0,1,.27,4.24,5.26,5.26,0,0,1-2.64,2.39C156.32,241.27,154.88,241.38,154.92,241.56Z" style="fill:#e0e0e0"></path><path d="M212,279c-1.25-.78-17.75-4.07-17.75-4.07l-39.72,1.36L140.36,279s-2.27,44.17-1.87,45,18.91,15.79,19.69,16.58,38.64-12.28,38.64-12.28l24.65-45.12Z" style="fill:#f5f5f5"></path><path d="M206.73,274.8c2,0,24.08,5.86,31.22,15.29,9.83,13,26.36,32.43,26.36,32.43l-41.74,34.27-9.13,53.1s16.54,46,19.08,64.72c0,0-136.78.66-134,0,0,0,9.6-73.81,7.8-99.3s-.54-64.18-.54-64.18l17.31-30,26-3.83s-10,19.09,10.84,22.33C181.32,303,206.73,274.8,206.73,274.8Z" style="fill:#ebebeb"></path><path d="M145.81,277.78s-24,3.26-31.9,5.13-39,35.53-39,35.53l32.06,34.26,13.76-28.84Z" style="fill:#ebebeb"></path><path d="M106.55,318.15a17.4,17.4,0,0,0-.31,3.07c-.13,2-.27,4.85-.41,8.39-.29,7.09-.55,16.89-.66,27.72s-.07,20.63.07,27.72c.06,3.55.14,6.42.23,8.4a18.18,18.18,0,0,0,.24,3.08,16.83,16.83,0,0,0,.18-3.08c0-2.18.06-5,.1-8.4.07-7.29.15-17,.24-27.71s.26-20.42.35-27.71c0-3.39.06-6.22.08-8.4A17.35,17.35,0,0,0,106.55,318.15Z" style="fill:#e0e0e0"></path><path d="M32.7,245.38s-2.48-6,.47-7.71S55,230,57.07,230.77s2.82,1.77,3.37,4a35.1,35.1,0,0,0,1.13,3.72s1.83-1.8,5.12-.11c0,0,3.43,1.77,3.93,3.27s-.25,3.56-.87,5.09-4.34,7.19-4.34,7.19a20,20,0,0,1-3.09,9.75c-3.13,5-9.27,6.41-10.26,10l1.39,16.08-22,12.54s.19-20.1.51-28.92.26-17.67-.32-20.53S31.81,245.83,32.7,245.38Z" style="fill:#f5f5f5"></path><path d="M44,253.72s.16-.27.37-.78a2.4,2.4,0,0,0-.19-2.25l-.1-.15.16-.06,2.68-1.11.37-.15-.13.38c-.22.69-.47,1.45-.73,2.25v0l0,0a3.28,3.28,0,0,0-1.07,2.2,2.41,2.41,0,0,0,1.43,2.11,2.32,2.32,0,0,0,1.38.17,7.82,7.82,0,0,0,1.44-.55,13.28,13.28,0,0,0,2.76-1.76,10.21,10.21,0,0,0,1.58-1.57l.07-.08.1,0A5.78,5.78,0,0,0,57.3,251a4.15,4.15,0,0,0,1.3-2.88V248l.17-.05a6.48,6.48,0,0,0,2.07-1,2.82,2.82,0,0,0,.71-.76,2.36,2.36,0,0,0,.21-.94,19.13,19.13,0,0,0-.25-3.51c-.14-1-.27-1.75-.36-2.27a3.8,3.8,0,0,1-.1-.82,4.15,4.15,0,0,1,.25.79c.13.52.3,1.28.48,2.26a17.67,17.67,0,0,1,.36,3.58,2.52,2.52,0,0,1-.24,1.12,3.31,3.31,0,0,1-.79.88,6.88,6.88,0,0,1-2.22,1.15l.17-.23a4.6,4.6,0,0,1-1.41,3.25,6.26,6.26,0,0,1-3.52,1.55l.18-.1a10.43,10.43,0,0,1-1.66,1.66,13.15,13.15,0,0,1-2.88,1.82,8.92,8.92,0,0,1-1.57.59,2.81,2.81,0,0,1-3-4.2,5.64,5.64,0,0,1,.83-1.07l0,.07c.28-.79.54-1.54.78-2.23l.24.23-2.71,1,.06-.22A2.53,2.53,0,0,1,44.5,253a3,3,0,0,1-.35.55A.84.84,0,0,1,44,253.72Z" style="fill:#e0e0e0"></path><path d="M37.3,243.31a4.22,4.22,0,0,1,1-.32c.64-.18,1.55-.41,2.69-.7l4-1,2.36-.56a7.93,7.93,0,0,1,2.67-.32,3,3,0,0,1,2.22,1.6,10.09,10.09,0,0,1,.87,2.33,26.59,26.59,0,0,1,.74,4.08c.12,1.16.18,2.11.21,2.77a3.71,3.71,0,0,1,0,1c-.08,0-.23-1.44-.56-3.75a30.72,30.72,0,0,0-.83-4,10.2,10.2,0,0,0-.85-2.2A2.43,2.43,0,0,0,49.92,241a7.53,7.53,0,0,0-2.48.3l-2.37.52-4,.86c-1.15.24-2.08.42-2.72.54A3.68,3.68,0,0,1,37.3,243.31Z" style="fill:#e0e0e0"></path><path d="M40.58,239a4.49,4.49,0,0,1,1-.38c.64-.21,1.58-.5,2.75-.83s2.57-.7,4.14-1c.79-.16,1.61-.33,2.49-.45a6.19,6.19,0,0,1,2.79.14A4.53,4.53,0,0,1,56,238.14a9.5,9.5,0,0,1,1.16,2.29,30.62,30.62,0,0,1,1.16,4.13,25,25,0,0,1,.44,2.84,3.89,3.89,0,0,1,0,1.06c-.09,0-.26-1.48-.84-3.82a36.35,36.35,0,0,0-1.25-4,9.87,9.87,0,0,0-1.12-2.16,4.06,4.06,0,0,0-2-1.54,5.78,5.78,0,0,0-2.55-.14c-.85.12-1.68.27-2.46.42-1.57.31-3,.64-4.15.92l-2.79.68A3.77,3.77,0,0,1,40.58,239Z" style="fill:#e0e0e0"></path><path d="M32.68,241.31a4.37,4.37,0,0,1,2.37-1.63,4.37,4.37,0,0,1,2.87-.29c0,.16-1.26.24-2.69.78S32.78,241.43,32.68,241.31Z" style="fill:#e0e0e0"></path><path d="M51,233.56a2.27,2.27,0,0,1,.77-.17,12.9,12.9,0,0,1,2.16-.15,6.56,6.56,0,0,1,3.15.84,4.31,4.31,0,0,1,1.42,1.37,7.15,7.15,0,0,1,.8,1.93,55.27,55.27,0,0,1,1.27,7,13,13,0,0,1,.17,2.94,20.64,20.64,0,0,1-.54-2.89c-.3-1.78-.74-4.25-1.4-6.9a4.68,4.68,0,0,0-2-3,6.42,6.42,0,0,0-2.92-.88C52.09,233.51,51,233.66,51,233.56Z" style="fill:#e0e0e0"></path><path d="M41,236.18a6.27,6.27,0,0,1,2.37-.89,6.13,6.13,0,0,1,2.49-.39,6.17,6.17,0,0,1-2.36.89A6.16,6.16,0,0,1,41,236.18Z" style="fill:#e0e0e0"></path><path d="M58.73,249.28A5.21,5.21,0,0,1,62,250.55a5.14,5.14,0,0,1,2.13,2.71c-.13.09-.95-1.21-2.44-2.3S58.69,249.43,58.73,249.28Z" style="fill:#e0e0e0"></path><path d="M61.73,246.23c.08-.16,1.28.66,2.91.6s2.9-.71,3-.54a4.53,4.53,0,0,1-3,1.06,4.35,4.35,0,0,1-2.2-.52C62,246.54,61.7,246.28,61.73,246.23Z" style="fill:#e0e0e0"></path><path d="M40.66,255.46a2.6,2.6,0,0,1,.84-.08,11.13,11.13,0,0,1,2.29.24A13,13,0,0,1,54,265.84a11.63,11.63,0,0,1,.22,2.29,2.6,2.6,0,0,1-.08.84c-.1,0,0-1.2-.5-3.05a13.42,13.42,0,0,0-9.9-9.94C41.86,255.51,40.66,255.56,40.66,255.46Z" style="fill:#e0e0e0"></path><path d="M37.5,276.08a32.12,32.12,0,0,0,6.36-.31,32.44,32.44,0,0,0,6-2,5.07,5.07,0,0,1-1.59,1.06A16.11,16.11,0,0,1,44,276.28a16.66,16.66,0,0,1-4.6.21A5.19,5.19,0,0,1,37.5,276.08Z" style="fill:#e0e0e0"></path></g><g id="freepik--Desk--inject-226"><path d="M44.77,474.91c0-.14,145.17-.26,324.21-.26s324.25.12,324.25.26-145.14.26-324.25.26S44.77,475.05,44.77,474.91Z" style="fill:#263238"></path></g><g id="freepik--Stars--inject-226"><path d="M115.78,50.91l2,4.14a.75.75,0,0,0,.56.4l4.57.66a.75.75,0,0,1,.41,1.27l-3.3,3.22a.72.72,0,0,0-.22.65l.78,4.55a.74.74,0,0,1-1.07.78l-4.09-2.15a.76.76,0,0,0-.69,0l-4.08,2.15a.74.74,0,0,1-1.07-.78l.78-4.55a.72.72,0,0,0-.22-.65l-3.3-3.22a.74.74,0,0,1,.41-1.27l4.57-.66a.72.72,0,0,0,.55-.4l2-4.14A.74.74,0,0,1,115.78,50.91Z" style="fill:#3B577D"></path><path d="M64,107.29l-.51,2.57a.41.41,0,0,0,.11.38l1.83,1.88a.42.42,0,0,1-.26.71l-2.6.31a.4.4,0,0,0-.32.22L61,115.68a.42.42,0,0,1-.75,0l-1.1-2.38a.39.39,0,0,0-.31-.24l-2.58-.45a.42.42,0,0,1-.21-.73L58,110.09a.44.44,0,0,0,.13-.37l-.37-2.6a.42.42,0,0,1,.62-.42L60.62,108a.41.41,0,0,0,.39,0l2.35-1.16A.42.42,0,0,1,64,107.29Z" style="fill:#3B577D"></path><path d="M372.73,41.52l-.51,2.57a.44.44,0,0,0,.11.38l1.83,1.88a.42.42,0,0,1-.25.71l-2.61.31a.38.38,0,0,0-.32.22l-1.22,2.32a.43.43,0,0,1-.76,0l-1.1-2.39a.43.43,0,0,0-.31-.24L365,46.82a.42.42,0,0,1-.21-.73l1.92-1.78a.41.41,0,0,0,.13-.36l-.37-2.6a.42.42,0,0,1,.62-.43l2.29,1.29a.45.45,0,0,0,.39,0l2.36-1.16A.42.42,0,0,1,372.73,41.52Z" style="fill:#3B577D"></path><path d="M648.5,130.78l-.51,2.57a.4.4,0,0,0,.11.37l1.82,1.88a.42.42,0,0,1-.25.71l-2.6.31a.45.45,0,0,0-.33.22l-1.22,2.32a.42.42,0,0,1-.76,0l-1.09-2.38a.42.42,0,0,0-.31-.24l-2.58-.45a.42.42,0,0,1-.22-.72l1.93-1.78a.42.42,0,0,0,.13-.37l-.37-2.59a.42.42,0,0,1,.62-.43l2.29,1.28a.41.41,0,0,0,.39,0l2.35-1.16A.43.43,0,0,1,648.5,130.78Z" style="fill:#3B577D"></path><path d="M639.36,70l-1.5.71a.26.26,0,0,0-.15.2l-.26,1.64a.27.27,0,0,1-.46.14l-1.14-1.2a.23.23,0,0,0-.23-.08l-1.64.26a.27.27,0,0,1-.28-.39l.79-1.46a.28.28,0,0,0,0-.25l-.76-1.48a.27.27,0,0,1,.29-.38l1.63.3a.27.27,0,0,0,.24-.07l1.17-1.18a.27.27,0,0,1,.45.16l.22,1.64a.29.29,0,0,0,.14.21l1.48.75A.27.27,0,0,1,639.36,70Z" style="fill:#3B577D"></path><path d="M145.44,120l-1.5.71a.25.25,0,0,0-.14.2l-.26,1.64a.27.27,0,0,1-.46.14l-1.14-1.2a.24.24,0,0,0-.24-.08l-1.64.26a.26.26,0,0,1-.27-.39l.79-1.46a.28.28,0,0,0,0-.25l-.75-1.48a.26.26,0,0,1,.28-.38l1.64.3A.25.25,0,0,0,142,118l1.18-1.18a.27.27,0,0,1,.45.16l.22,1.64a.25.25,0,0,0,.14.2l1.48.76A.27.27,0,0,1,145.44,120Z" style="fill:#3B577D"></path><path d="M580.37,87.65l-.78,3.87a.66.66,0,0,0,.17.57l2.75,2.83a.63.63,0,0,1-.38,1.07l-3.92.46a.63.63,0,0,0-.48.33l-1.85,3.49a.63.63,0,0,1-1.13,0l-1.65-3.58a.62.62,0,0,0-.47-.36l-3.89-.67a.64.64,0,0,1-.32-1.1l2.9-2.67a.65.65,0,0,0,.2-.56L571,87.4a.63.63,0,0,1,.93-.64l3.45,1.93a.65.65,0,0,0,.59,0L579.47,87A.63.63,0,0,1,580.37,87.65Z" style="fill:#3B577D"></path></g><g id="freepik--Plants--inject-226"><path d="M116.22,415.25a11.82,11.82,0,0,1,8.18,4.33,20.94,20.94,0,0,1,4.08,8.49c1.51,5.95.44,12.93-1.33,18.8-6.38-2.37-10.25-9.27-12-12.88-2.75-5.73-4.26-17.74,1.06-18.74" style="fill:#455a64"></path><path d="M136.29,454.17a10.09,10.09,0,0,1-.34-10.11,13.34,13.34,0,0,1,8.14-6.37c1.57-.46,3.39-.64,4.74.28a4.34,4.34,0,0,1,1.61,4.07,8.75,8.75,0,0,1-1.9,4.12c-3.17,4.18-7,7.64-12.25,8" style="fill:#455a64"></path><path d="M136.74,474a7.85,7.85,0,0,1-.27-1.24c-.16-.88-.37-2-.61-3.38A35.22,35.22,0,0,1,135.3,458a21.69,21.69,0,0,1,4.34-10.46,14.76,14.76,0,0,1,2.47-2.43,8.55,8.55,0,0,1,.77-.53c.18-.12.28-.17.29-.16a20.09,20.09,0,0,0-7.43,13.64,38,38,0,0,0,.43,11.24c.21,1.43.38,2.6.47,3.41A6.18,6.18,0,0,1,136.74,474Z" style="fill:#263238"></path><path d="M118.17,424.3a2,2,0,0,1,.25.49c.17.37.38.85.65,1.43.55,1.26,1.32,3.07,2.26,5.33,1.87,4.51,4.37,10.78,7,17.77s4.82,13.36,6.36,18c.77,2.32,1.38,4.2,1.78,5.51l.46,1.5a4.5,4.5,0,0,1,.13.54,2.36,2.36,0,0,1-.22-.51c-.14-.38-.31-.87-.53-1.48l-1.92-5.46c-1.61-4.61-3.87-11-6.48-17.95s-5.06-13.26-6.85-17.8c-.89-2.23-1.61-4.06-2.13-5.38-.24-.6-.42-1.09-.57-1.47A3.63,3.63,0,0,1,118.17,424.3Z" style="fill:#263238"></path><path d="M129.3,460.78a23.6,23.6,0,0,0-18.15-11.6c-1.89-.16-4.18.13-5,1.82s.23,3.73,1.51,5.14a20.13,20.13,0,0,0,21.74,5.15" style="fill:#455a64"></path><path d="M114,454.29a7,7,0,0,1,1.18.06,10.71,10.71,0,0,1,1.38.18,17.84,17.84,0,0,1,1.82.37,21.38,21.38,0,0,1,2.15.62,24.81,24.81,0,0,1,2.4,1,26,26,0,0,1,5,3.08,25.24,25.24,0,0,1,4.15,4.2,22.39,22.39,0,0,1,1.45,2.13,18.68,18.68,0,0,1,1.07,2,17,17,0,0,1,.73,1.7,10.6,10.6,0,0,1,.46,1.32,5.62,5.62,0,0,1,.29,1.15c-.09,0-.53-1.61-1.76-4a21,21,0,0,0-1.11-1.91,22.11,22.11,0,0,0-1.46-2.08,26.86,26.86,0,0,0-4.09-4.11,27.34,27.34,0,0,0-4.94-3.05,23.32,23.32,0,0,0-2.34-1c-.74-.29-1.46-.48-2.11-.67C115.66,454.5,114,454.39,114,454.29Z" style="fill:#263238"></path><path d="M569,397.93a14.69,14.69,0,0,1,5.91,9.9,26,26,0,0,1-1.16,11.69c-2.24,7.31-7.9,14.06-13.58,19.17-5.26-6.67-4.92-16.51-4.43-21.49.78-7.88,7-21.65,13.26-19.27" style="fill:#455a64"></path><path d="M565.19,452.38a12.57,12.57,0,0,1,6.19-11,16.68,16.68,0,0,1,12.8-1.51c2,.53,4,1.52,4.86,3.38a5.39,5.39,0,0,1-.92,5.37,10.92,10.92,0,0,1-4.69,3.16c-6.09,2.39-12.43,3.6-18.24.59" style="fill:#455a64"></path><path d="M552.84,473.77a8.56,8.56,0,0,1,.51-1.49c.4-1,.91-2.39,1.53-4,1.35-3.34,3.17-8.14,6.77-12.45a26.93,26.93,0,0,1,11.4-8.32,18.25,18.25,0,0,1,4.19-1c.51-.07.91-.06,1.17-.08a1.3,1.3,0,0,1,.41,0,29.36,29.36,0,0,0-5.64,1.41,28,28,0,0,0-11.11,8.31c-3.52,4.23-5.39,8.95-6.82,12.25-.71,1.66-1.28,3-1.7,3.93A8.06,8.06,0,0,1,552.84,473.77Z" style="fill:#263238"></path><path d="M565.24,408.83a2.5,2.5,0,0,1,0,.68c-.06.51-.14,1.15-.24,1.95-.23,1.69-.58,4.13-1,7.14-.93,6-2.33,14.32-4.08,23.45s-3.52,17.35-4.89,23.29c-.68,3-1.25,5.37-1.67,7-.2.78-.36,1.41-.49,1.9a3.23,3.23,0,0,1-.21.65,3.43,3.43,0,0,1,.1-.68l.39-1.92,1.5-7.05c1.27-6,3-14.19,4.73-23.32s3.2-17.4,4.23-23.41c.5-2.95.92-5.36,1.22-7.1.14-.8.25-1.44.34-1.93A3.56,3.56,0,0,1,565.24,408.83Z" style="fill:#263238"></path><path d="M553.46,454.89a29.4,29.4,0,0,0-11.81-24.11c-1.91-1.4-4.54-2.57-6.56-1.33s-2.16,4.12-1.72,6.46a25.1,25.1,0,0,0,19.82,19.57" style="fill:#455a64"></path><path d="M541.34,438.06a7.24,7.24,0,0,1,1.23.83,15.08,15.08,0,0,1,1.35,1.08c.5.46,1.12.94,1.7,1.57a26.12,26.12,0,0,1,1.88,2.06,30.55,30.55,0,0,1,1.94,2.56,32.89,32.89,0,0,1,3.38,6.54,32,32,0,0,1,1.68,7.17,27.78,27.78,0,0,1,.17,3.21,24.21,24.21,0,0,1-.14,2.79,20.53,20.53,0,0,1-.32,2.28,11.67,11.67,0,0,1-.37,1.7,7,7,0,0,1-.43,1.42c-.12,0,.48-2.06.73-5.43a24.53,24.53,0,0,0,.07-2.76,29.9,29.9,0,0,0-.21-3.16,33.47,33.47,0,0,0-1.7-7,34.34,34.34,0,0,0-3.28-6.44c-.63-.92-1.23-1.8-1.87-2.56s-1.24-1.46-1.81-2.08C543,439.37,541.27,438.15,541.34,438.06Z" style="fill:#263238"></path></g><g id="freepik--speech-bubble--inject-226"><path d="M260,140.91l-13.84-1.62a44.52,44.52,0,1,1,9-13.18l0,0Z" style="fill:#fff"></path><path d="M260,140.91l-.34-1-1-2.84c-.84-2.5-2.08-6.18-3.68-11l.24.05,0,0a.14.14,0,0,1-.2,0,.15.15,0,0,1,0-.17,44.36,44.36,0,0,0,2.5-28.35,49.5,49.5,0,0,0-2.37-6.94,44,44,0,0,0-8.77-13.25,44.11,44.11,0,0,0-67.79,5.06,43.85,43.85,0,0,0-7.76,19.78,44.91,44.91,0,0,0,2,20.21,43.4,43.4,0,0,0,10.05,16.28,44.37,44.37,0,0,0,30.37,13.39l1.9,0a11.53,11.53,0,0,0,1.86-.06l3.63-.32a60.43,60.43,0,0,0,6.73-1.47A44.28,44.28,0,0,0,246,139.2a.17.17,0,0,1,.11,0l10.25,1.28,2.66.34.92.13-.87-.08-2.63-.28-10.36-1.13.11,0a44.27,44.27,0,0,1-18.74,11.41,60.94,60.94,0,0,1-6.79,1.52l-3.66.34a11.86,11.86,0,0,1-1.89.07l-1.91,0a44.71,44.71,0,0,1-30.77-13.47,44.08,44.08,0,0,1-10.21-16.47,45.43,45.43,0,0,1-2.09-20.49A44.61,44.61,0,0,1,178,82.2a21.4,21.4,0,0,1,1.64-2.15L181.38,78l1.9-1.9a17.66,17.66,0,0,1,2-1.81l2-1.7c.67-.58,1.45-1,2.16-1.52s1.44-1,2.2-1.44L194,68.37a44,44,0,0,1,19.56-5,44.57,44.57,0,0,1,42,27.19,49.53,49.53,0,0,1,2.36,7,43.41,43.41,0,0,1,1.09,6.83,44.47,44.47,0,0,1-3.76,21.74L255,126l0,0a.13.13,0,0,1,.19,0,.18.18,0,0,1,.05.07l3.55,11.1c.39,1.23.68,2.17.89,2.82S260,140.91,260,140.91Z" style="fill:#263238"></path><polygon points="193.41 109.77 198.88 103.92 210.14 113.26 230.89 91.88 236.34 97.37 209.7 124.21 193.41 109.77" style="fill:#3B577D"></polygon></g><g id="freepik--Character--inject-226"><path d="M356.26,258.46a32.19,32.19,0,0,1-5.83.15,33.36,33.36,0,0,1-5.83-.37,33.55,33.55,0,0,1,5.84-.15A33.06,33.06,0,0,1,356.26,258.46Z" style="fill:#263238"></path><path d="M171.25,254s3.88,22,7.55,26.64,6,19.21,6,19.21l30-10.81-2-11,1.83-27.83s-10.28-17.15-9.88-16.56S171.25,254,171.25,254Z" style="fill:#ffbf9d"></path><path d="M184.83,299.83v0c0-.14-2.42-14.58-6-19.19-1.9-2.42-3.85-9.54-5.15-15.09-1.42-6-2.39-11.51-2.4-11.57v0h0c.09,0,8.51-4.95,16.81-9.89,14.5-8.64,16.72-10.26,16.74-10.45h0s0,0,0,0,0,0,.05,0v0c.44.81,9.77,16.39,9.87,16.55h0L212.88,278l2,11h0ZM171.28,254c.13.72,4,22.06,7.54,26.61,1.9,2.42,3.44,7.52,4.4,11.37s1.59,7.47,1.65,7.83l30-10.8-2-11,1.82-27.82c-.11-.2-2.55-4.26-4.95-8.28-1.44-2.4-2.58-4.32-3.4-5.7-.49-.81-.86-1.45-1.12-1.88s-.33-.55-.38-.65C203.85,235,172.83,253.06,171.28,254Z" style="fill:#ff9a6c"></path><path d="M270.15,244.67s-15.51,4.75-17.9,21.08c-1.11,7.56-12.43,77.2-12.43,77.2l-17.54-49.8-46.06,17.08S193,361.83,194,364.86c8.62,25.16,15.79,60.61,55,56.66,40.76-4.12,33.1-83.31,33.1-83.31Z" style="fill:#455a64"></path><rect x="108.75" y="163.8" width="365.69" height="3.63" transform="translate(-37.5 230.02) rotate(-40.67)" style="fill:#e0e0e0"></rect><path d="M154.09,286.14a2.9,2.9,0,0,1,.37-.36l1.07-1,4.2-3.71L175.86,267l59.26-51.35C285.15,172.41,354.2,112.8,430.77,47l-.12,1.51-2.35-2.74v0l1.5.12C284.41,170.8,164.66,273.13,151.8,283.47v-.15c.94,1.16,1.51,1.85,1.85,2.26a6.39,6.39,0,0,1,.43.56s-.1-.08-.45-.46l-2-2.22-.07-.08.08-.07C163.82,272.15,283,169.18,428.4,44.27l.81-.7.7.81v0l2.35,2.73.7.81-.81.7c-76.9,66.07-146.53,125.62-196.82,168.53l-59.5,50.69c-7,5.93-12.44,10.54-16.14,13.66l-4.19,3.5A13,13,0,0,1,154.09,286.14Z" style="fill:#263238"></path><path d="M204,217.18c.29.18,4.34,4.19,8.24,7.29s5.11,3.32,6.19,8,2.85,19.89,2.4,23.29-12.06,25.44-12.06,25.44-11.06,4-11.82-10.65,12-24,12-24l-1.7-11.3s-6.16-5.88-6.86-10.6S201.77,215.82,204,217.18Z" style="fill:#ffbf9d"></path><path d="M179.41,246c-4.84-2.43-7,.24-7.85,1.79a7.28,7.28,0,0,0-.47,5.21,11.8,11.8,0,0,0,2.37,4.37c1.4,1.74,3.16,3.27,5.24,3.41s4.6-2.45,4.86-4.93" style="fill:#ffbf9d"></path><path d="M183.56,255.89s0,.12,0,.34a4.14,4.14,0,0,1-.23,1,6.51,6.51,0,0,1-2.12,2.92,4,4,0,0,1-2.39.93,5.59,5.59,0,0,1-2.78-.89,10.84,10.84,0,0,1-2.39-2.12,15.48,15.48,0,0,1-2-2.79,8.4,8.4,0,0,1-.77-6.48,5.43,5.43,0,0,1,3.74-3.73,6,6,0,0,1,3.59.4,7.55,7.55,0,0,1,.88.42c.2.11.3.18.29.19a9.51,9.51,0,0,1-1.24-.42,6.15,6.15,0,0,0-3.43-.24,5.11,5.11,0,0,0-3.37,3.53,8,8,0,0,0,.77,6.08A16,16,0,0,0,174,257.7a10.81,10.81,0,0,0,2.27,2,5.13,5.13,0,0,0,2.53.87,3.74,3.74,0,0,0,2.16-.79,6.7,6.7,0,0,0,2.15-2.7C183.47,256.35,183.51,255.88,183.56,255.89Z" style="fill:#ff9a6c"></path><path d="M185.72,236.48a8.89,8.89,0,0,0-4.11-.61,4.7,4.7,0,0,0-3.55,2.55,8.22,8.22,0,0,0-.51,4.15c.51,6.46,3.48,12.39,7.9,15.94a3.48,3.48,0,0,0,4.33.1c.88-.65,1.73-1.58,2.41-5.45" style="fill:#ffbf9d"></path><path d="M192.19,253.16a1.29,1.29,0,0,1,0,.43c0,.28-.1.69-.21,1.21a11.58,11.58,0,0,1-.55,1.88,4.38,4.38,0,0,1-1.56,2.1,3.67,3.67,0,0,1-3.12.62,3.91,3.91,0,0,1-1.59-.85,17.7,17.7,0,0,1-1.38-1.25,21.85,21.85,0,0,1-4.55-6.85,25.08,25.08,0,0,1-1.91-8,9,9,0,0,1,.36-3.62,4.67,4.67,0,0,1,2-2.45,4.94,4.94,0,0,1,2.52-.71,7.46,7.46,0,0,1,1.95.25,11.64,11.64,0,0,1,1.17.38q.4.15.39.18s-.57-.15-1.6-.36a5.66,5.66,0,0,0-4.24.57,4.36,4.36,0,0,0-1.81,2.28,8.6,8.6,0,0,0-.29,3.44,25.2,25.2,0,0,0,1.91,7.84A21.91,21.91,0,0,0,184.1,257c.43.44.88.85,1.33,1.23a3.62,3.62,0,0,0,1.41.79,3.34,3.34,0,0,0,2.8-.51,4.11,4.11,0,0,0,1.5-1.91,12.68,12.68,0,0,0,.62-1.82C192,253.73,192.15,253.15,192.19,253.16Z" style="fill:#ff9a6c"></path><path d="M194.5,231.57a6,6,0,0,0-5.23-1.76,5.39,5.39,0,0,0-4,4.41,9.47,9.47,0,0,0,.44,3.89,76,76,0,0,0,4.8,13.18,7,7,0,0,0,1.86,2.69,3.81,3.81,0,0,0,4.64-.43c1.4-1.11,2.35-2.71,2.93-6" style="fill:#ffbf9d"></path><path d="M199.93,247.56a1.66,1.66,0,0,1,0,.47,11.54,11.54,0,0,1-.25,1.29,10,10,0,0,1-.68,2,6.59,6.59,0,0,1-1.68,2.25,4.69,4.69,0,0,1-3.18,1.24,3.33,3.33,0,0,1-1.86-.63,5,5,0,0,1-1.33-1.56,63.74,63.74,0,0,1-3.5-8.11c-.53-1.47-1-2.93-1.41-4.35a29.47,29.47,0,0,1-1-4.16,5.85,5.85,0,0,1,.77-3.83,5.71,5.71,0,0,1,2.57-2.24,4.8,4.8,0,0,1,2.8-.27,6.41,6.41,0,0,1,2,.78,6.94,6.94,0,0,1,1.06.8,1.83,1.83,0,0,1,.32.34s-.49-.41-1.48-1a6.41,6.41,0,0,0-1.92-.67,4.64,4.64,0,0,0-2.6.31,5.31,5.31,0,0,0-2.35,2.13,5.46,5.46,0,0,0-.66,3.56,29.72,29.72,0,0,0,1,4.07c.42,1.41.88,2.85,1.41,4.31a66.08,66.08,0,0,0,3.43,8,4.58,4.58,0,0,0,1.18,1.45,2.9,2.9,0,0,0,1.61.56,4.38,4.38,0,0,0,2.92-1.09,7.94,7.94,0,0,0,2.41-4C199.77,248.18,199.88,247.56,199.93,247.56Z" style="fill:#ff9a6c"></path><path d="M205.26,232.86a29.45,29.45,0,0,1,1.81,7.24,10.35,10.35,0,0,1-1.52,7,4.13,4.13,0,0,1-5.65,1.27,8.27,8.27,0,0,1-2.46-3.64,60.32,60.32,0,0,1-2.63-8.27,19.09,19.09,0,0,1-.78-4.37,10.2,10.2,0,0,1,.63-4.18c.54-1.33,3.37-3.6,6-1.73A14.32,14.32,0,0,1,205.26,232.86Z" style="fill:#ffbf9d"></path><path d="M205.26,232.86s-.32-.75-1-2a15.79,15.79,0,0,0-1.46-2.24,10.55,10.55,0,0,0-2.51-2.41,3.55,3.55,0,0,0-3.86.17,4,4,0,0,0-1.53,1.64,8.59,8.59,0,0,0-.56,2.4,15,15,0,0,0,.56,5.34c.47,1.83,1,3.73,1.59,5.64a26.2,26.2,0,0,0,2.25,5.34,4.49,4.49,0,0,0,1.9,1.8,3.51,3.51,0,0,0,2.45.11,5.23,5.23,0,0,0,3.19-3.29,11.16,11.16,0,0,0,.69-4.15,23.89,23.89,0,0,0-1-6.11l-.49-1.62a2,2,0,0,1-.15-.58,3.73,3.73,0,0,1,.25.54c.14.37.35.9.58,1.6a22.64,22.64,0,0,1,1.23,6.16,11.3,11.3,0,0,1-.66,4.32,6.7,6.7,0,0,1-1.24,2.13,5.11,5.11,0,0,1-2.21,1.46,3.91,3.91,0,0,1-2.79-.12,5,5,0,0,1-2.13-2,26.5,26.5,0,0,1-2.31-5.46c-.62-1.93-1.13-3.83-1.6-5.68a20.63,20.63,0,0,1-.53-2.78,13.74,13.74,0,0,1,0-2.72,8.91,8.91,0,0,1,.61-2.54,4.48,4.48,0,0,1,1.73-1.82,4.3,4.3,0,0,1,2.21-.7,3.69,3.69,0,0,1,2.07.58,10.43,10.43,0,0,1,2.55,2.55,15.45,15.45,0,0,1,1.41,2.31,14.33,14.33,0,0,1,.67,1.57A3.13,3.13,0,0,1,205.26,232.86Z" style="fill:#ff9a6c"></path><path d="M207.19,235.32a3.63,3.63,0,0,1,.2.81c.1.61.24,1.37.41,2.3.33,2.07.79,4.86,1.32,8.16l0,.18-.18.07a13.89,13.89,0,0,0-3.88,2.22,18.37,18.37,0,0,0-3.36,3.64c-3.65,4.61-4.33,10-4.59,13.76a29,29,0,0,0,.09,4.48c.12,1.05.28,1.62.23,1.63s-.07-.13-.15-.4A10,10,0,0,1,197,271a23.29,23.29,0,0,1-.26-4.52,32.71,32.71,0,0,1,.92-6.66,18.21,18.21,0,0,1,1.37-3.76,32.64,32.64,0,0,1,2.24-3.63,18.61,18.61,0,0,1,3.48-3.74,14.27,14.27,0,0,1,4-2.26l-.15.26c-.46-3.31-.85-6.11-1.13-8.19-.12-.93-.21-1.7-.29-2.32A3.7,3.7,0,0,1,207.19,235.32Z" style="fill:#ff9a6c"></path><path d="M246.2,380.22a9.28,9.28,0,0,1-.34-1.45c-.19-1-.44-2.38-.74-4-.62-3.46-1.45-8.07-2.37-13.16s-1.7-9.8-2.21-13.19c-.26-1.69-.46-3.06-.58-4a7.08,7.08,0,0,1-.14-1.48,9.28,9.28,0,0,1,.34,1.45l.74,4c.62,3.46,1.45,8.07,2.37,13.16s1.7,9.8,2.21,13.18c.26,1.7.46,3.07.58,4A7,7,0,0,1,246.2,380.22Z" style="fill:#263238"></path><polygon points="178.6 309.35 174.11 294.06 215.83 280.81 219.64 293.97 178.6 309.35" style="fill:#e0e0e0"></polygon><path d="M178.6,309.35l.21-.1.61-.24,2.31-.9,8.56-3.29,29.27-11.08-.16.3c-1.21-4.17-2.49-8.59-3.82-13.15l.33.17-1,.33-40.7,12.84.11-.22c1.35,4.72,2.43,8.53,3.19,11.19.36,1.3.65,2.32.85,3.05.09.33.16.6.22.81a1,1,0,0,1,.06.29l-.09-.25-.24-.76-.92-3-3.41-11.24-.05-.17.17-.05,40.66-13,1-.32.26-.09.07.26,3.81,13.16.06.23-.22.08-29.51,10.93-8.56,3.13-2.28.82-.58.2Z" style="fill:#263238"></path><g style="opacity:0.30000000000000004"><path d="M239.82,343c7.71,14.08,11.2,31,11.38,47,0,1.4-.46,3.28-1.86,3.25s-1.76-1.62-1.91-2.88c-1.8-15.16-5.81-32.25-7.61-47.41"></path></g><path d="M538.22,114.25c-15.83-15.62-15.46-43.49-27.58-62.13C496.25,30,469.35,26.52,443.42,31.45a4.09,4.09,0,0,0-1.9.93l-84.08,73.15a4,4,0,0,0,3.55,7c18.1-4,40.9-3.19,53,9.59,12.33,13,21.93,49.12,31.93,64.14,15.85,23.84,33.88,40.38,65.84,42.85a4,4,0,0,0,3.16-1.19l3.67-3.71c.08-.08.15-.17.22-.25,24.41-29.06,45.68-56.3,69.72-85.14a4,4,0,0,0-2.54-6.6C568.45,129.75,550.74,126.61,538.22,114.25Z" style="fill:#3B577D"></path><path d="M468.64,184.74a1.23,1.23,0,0,1-.07-.26c0-.21-.09-.47-.16-.79-.14-.73-.33-1.75-.57-3-.12-.67-.25-1.4-.4-2.2s-.21-1.69-.33-2.63c-.22-1.9-.56-4-.65-6.44-.08-1.2-.16-2.46-.24-3.76s0-2.67-.07-4.08c-.09-2.83.11-5.84.25-9a134.22,134.22,0,0,1,3.07-20.39,135.64,135.64,0,0,1,6.41-19.62c1.3-2.89,2.47-5.67,3.82-8.15.66-1.25,1.24-2.49,1.89-3.62l1.9-3.25c1.17-2.1,2.43-3.87,3.47-5.47.53-.79,1-1.54,1.48-2.2l1.35-1.78c.79-1,1.42-1.87,1.87-2.46l.49-.63c.12-.14.18-.21.19-.2a1.12,1.12,0,0,1-.14.23l-.46.66L490,88.18l-1.3,1.8c-.46.67-.93,1.43-1.44,2.22-1,1.61-2.26,3.39-3.4,5.49L482,101c-.65,1.14-1.22,2.37-1.86,3.62-1.33,2.48-2.49,5.26-3.77,8.15A139,139,0,0,0,470,132.27a138.49,138.49,0,0,0-3.1,20.31c-.16,3.15-.37,6.15-.3,9,0,1.4,0,2.76,0,4.06s.14,2.56.2,3.75c.08,2.4.39,4.54.57,6.43.11,1,.19,1.83.3,2.63s.24,1.54.35,2.2c.2,1.3.36,2.32.47,3,.05.33.08.59.11.8A.69.69,0,0,1,468.64,184.74Z" style="fill:#263238"></path><g style="opacity:0.30000000000000004"><path d="M560,165.7l-21.72-11.89c-5.63-3.08-11.55-6.24-18-6.41-8.24-.21-16.18,4.92-20.13,12.15s-4.11,16.23-1.24,24,8.56,14.23,15.36,18.9a42,42,0,0,1,6.59,4.92c1.92,2,3.3,4.7,2.88,7.42l2,.89,37.08-45.48Z"></path></g><path d="M448.85,35.49a4.37,4.37,0,0,1-.59.62l-1.77,1.72c-1.55,1.48-3.81,3.6-6.62,6.21-5.62,5.2-13.47,12.3-22.3,20s-17,14.43-22.92,19.25c-3,2.42-5.4,4.35-7.09,5.67l-1.94,1.52a3.66,3.66,0,0,1-.71.49,6.56,6.56,0,0,1,.64-.58l1.89-1.58,7-5.8c5.89-4.9,14-11.71,22.82-19.36s16.71-14.71,22.39-19.84l6.73-6.09L448.19,36A5,5,0,0,1,448.85,35.49Z" style="fill:#263238"></path><g style="opacity:0.30000000000000004"><path d="M441.2,42.53,381.7,93.64c19.85-11.36,43.76-27.24,63.21-54.48C444.61,39.49,441.5,42.2,441.2,42.53Z"></path></g><path d="M414.11,314.77,391.41,206.7l-8.87-14.08-58.92,19s-4.26,8.69-4.25,9.74l-22.64,15.48L306,356l-8,36.73,3.11,82.16H428Z" style="fill:#e0e0e0"></path><path d="M313.22,224.71c-1.49,1-43.92,20.35-43.92,20.35l11,174.14-8.1,56,35.54-.27s5.32-26.42,6.81-71.09S313.22,224.71,313.22,224.71Z" style="fill:#455a64"></path><path d="M389.17,202.77S384,389.2,387,402.11,403.8,474.9,403.8,474.9h76.95L448,386.16l6-89.3-6-85.64-37.73-1Z" style="fill:#455a64"></path><path d="M268.5,270a2,2,0,0,1,.06.38l.12,1.13c.09,1,.22,2.48.39,4.34.33,3.78.78,9.24,1.29,16s1.08,14.8,1.62,23.73c.26,4.47.52,9.17.71,14s.24,9.91.55,15.06c.55,10.32,1.42,20.12,2.25,29s1.68,16.93,2.41,23.66,1.34,12.14,1.75,15.94c.21,1.86.37,3.31.48,4.33l.12,1.13a2.26,2.26,0,0,1,0,.39,1.74,1.74,0,0,1-.08-.38c0-.28-.09-.65-.16-1.13-.14-1-.33-2.46-.58-4.32-.48-3.76-1.15-9.19-1.92-15.92s-1.65-14.75-2.52-23.66-1.73-18.72-2.29-29.05c-.31-5.16-.34-10.21-.54-15.07s-.43-9.56-.68-14c-.51-8.93-1.05-17-1.51-23.73s-.85-12.19-1.12-16c-.13-1.87-.23-3.33-.3-4.35,0-.48,0-.85-.06-1.13S268.5,270,268.5,270Z" style="fill:#263238"></path><path d="M399.71,206.7a1.62,1.62,0,0,1,.11.22l.3.67c.27.61.66,1.49,1.15,2.63,1,2.31,2.38,5.71,4,10.08a295.13,295.13,0,0,1,11.26,36.91l.05.21-.2.06-6.82,2.1,0-.46a8.22,8.22,0,0,1,4.17,2.54,11.69,11.69,0,0,1,2.43,4.39c1,3.3.53,6.86-.21,10.26-1.61,6.79-3.29,13.85-5,21.09-6.58,27.42-12.54,52.24-16.86,70.23-2.17,9-3.94,16.22-5.16,21.27-.62,2.49-1.1,4.43-1.43,5.77q-.25,1-.39,1.5c-.09.34-.15.51-.15.51s0-.18.1-.52l.33-1.51c.31-1.35.76-3.3,1.34-5.8,1.19-5.05,2.9-12.33,5-21.31,4.29-18,10.19-42.83,16.71-70.26,1.73-7.24,3.41-14.29,5-21.08.73-3.37,1.15-6.84.22-10a11,11,0,0,0-2.31-4.2,7.73,7.73,0,0,0-3.92-2.4l-.85-.21.84-.25,6.82-2.08-.15.27a309.9,309.9,0,0,0-11.07-36.93c-1.62-4.38-3-7.79-3.92-10.12l-1.08-2.65c-.12-.29-.2-.52-.27-.69A.88.88,0,0,1,399.71,206.7Z" style="fill:#263238"></path><path d="M311.58,402.11s0-.17-.06-.49-.09-.83-.15-1.44c-.12-1.29-.29-3.15-.51-5.54-.45-4.81-1.12-11.77-2-20.36-1.76-17.19-4.48-40.9-7.3-67.11-.75-7-1.46-13.82-2.09-20.38-.31-3.26-.71-6.56.07-9.7a10.65,10.65,0,0,1,2.12-4.22,7.33,7.33,0,0,1,3.87-2.48l.09.46-7.93,1.08-.35.05.11-.34c4.2-13.79,7.71-25.3,10.17-33.39,1.24-4,2.22-7.17,2.89-9.35q.51-1.59.78-2.46l.21-.63a1.17,1.17,0,0,1,.08-.2s0,.07-.05.21-.1.38-.17.64c-.17.59-.41,1.41-.71,2.48-.65,2.19-1.58,5.36-2.77,9.39l-10,33.44-.25-.29,7.92-1.1.09.47a6.88,6.88,0,0,0-3.61,2.34,10.1,10.1,0,0,0-2,4c-.75,3-.36,6.27,0,9.53.67,6.55,1.37,13.37,2.09,20.37,2.83,26.21,5.49,49.93,7.16,67.13.83,8.6,1.44,15.56,1.83,20.38.18,2.39.32,4.26.42,5.55q.06.93.09,1.44A4.7,4.7,0,0,1,311.58,402.11Z" style="fill:#263238"></path><polygon points="339.84 246.73 344.5 258.09 356.7 258.09 361.18 244.94 351.15 233 347.88 233.44 339.84 246.73" style="fill:#3B577D"></polygon><path d="M349.58,230.79a1.92,1.92,0,0,1-.21.41l-.68,1.14-2.56,4.2c-2.18,3.58-5.17,8.61-8.41,14.45l-.19.35-.24-.32c-1.08-1.46-2.19-3-3.29-4.55A168.51,168.51,0,0,1,323.14,229c-1.26-2.31-2.2-4.22-2.84-5.54l-.71-1.54a2.2,2.2,0,0,1-.22-.55,3.36,3.36,0,0,1,.31.5c.21.39.47.89.8,1.49.7,1.3,1.69,3.18,3,5.46a196.3,196.3,0,0,0,11,17.33c1.1,1.57,2.21,3.08,3.28,4.54l-.43,0c3.27-5.83,6.32-10.84,8.57-14.38,1.13-1.76,2.05-3.17,2.7-4.12l.75-1.09A1.75,1.75,0,0,1,349.58,230.79Z" style="fill:#263238"></path><path d="M387,206.7a3.78,3.78,0,0,1-.28.68l-.89,1.91-3.38,7-11.32,23L366,249.53l-.15.31-.25-.24a161.17,161.17,0,0,1-11.95-13.15c-1.36-1.72-2.39-3.13-3.06-4.11-.34-.49-.59-.88-.75-1.14a2,2,0,0,1-.24-.41,1.71,1.71,0,0,1,.31.36l.81,1.09c.72,1,1.78,2.33,3.17,4,2.77,3.39,7,7.92,12.06,13l-.39.06c1.58-3.19,3.3-6.68,5.1-10.3,4.46-8.92,8.5-17,11.45-22.9l3.53-6.91,1-1.87A4.8,4.8,0,0,1,387,206.7Z" style="fill:#263238"></path><g style="opacity:0.30000000000000004"><path d="M349.51,459.77c.74-1.41,22.76-30.71,22.76-30.71L356.4,260.83Z"></path></g><path d="M344.73,258.09s-14.58,169.15-12.05,179.27l16.83,22.41L367,426.55c.39-1.59-10.74-168.46-10.74-168.46Z" style="fill:#3B577D"></path><path d="M410.63,419.06c0,.53,9.45,17.23,9.45,17.23l50.37-.27-11.17-17.08Z" style="fill:#455a64"></path><path d="M410.63,419.06h.22l.68,0,2.67,0,10.07-.09,35-.21h.14l.07.11,11.18,17.07.26.4H470l-49.89.19H420l-.05-.1c-3-5.31-5.35-9.62-7-12.6-.8-1.5-1.41-2.66-1.8-3.46-.21-.4-.34-.71-.44-.92a2.9,2.9,0,0,1-.1-.33l.15.31.48.89c.44.81,1.08,1.95,1.89,3.41,1.68,3,4.1,7.24,7.09,12.53l-.16-.1,49.89-.34h.48l-.22.4-11.15-17.09.2.11-34.84,0-10.13,0-2.72,0h-.71Z" style="fill:#263238"></path><path d="M357.69,240.86a20.36,20.36,0,0,1-1.9,2.53c-1.21,1.52-2.88,3.64-4.69,6s-3.4,4.53-4.55,6.1a19.32,19.32,0,0,1-1.95,2.5,18.4,18.4,0,0,1,1.64-2.71c1.08-1.63,2.64-3.84,4.45-6.21s3.53-4.45,4.82-5.92A17.49,17.49,0,0,1,357.69,240.86Z" style="fill:#263238"></path><g style="opacity:0.30000000000000004"><path d="M350.86,232.6s10.56,19,15.1,20.52,12.49-29.26,12.49-29.26l-12.68,24.91Z"></path></g><g style="opacity:0.30000000000000004"><path d="M389.17,388.32s23.76-77.63,28.83-99.5-1.51-28-1.51-28l4.68-2.84L407.1,225.61l9.25,31.65-6.82,2.09s5.36.4,6.76,8.28S389.17,388.32,389.17,388.32Z"></path></g><path d="M517.59,158.5s-2.64-2.54-7.31-.09c0,0-4.87,2.57-5.56,4.71s.4,5.07,1.3,7.24,6.28,10.19,6.28,10.19a28.41,28.41,0,0,0,4.51,13.87c4.53,7.11,12.12,7.32,13.56,12.46s2,6.68,1.12,10.21l-2.28,9.58,29.6,15.12s1.89-21.3,1.33-33.87-.58-25.18.21-29.26-.27-10.06-1.54-10.69c0,0,3.46-8.56-.76-11s-31.22-10.62-34.14-9.54-4,2.56-4.77,5.75A49,49,0,0,1,517.59,158.5Z" style="fill:#ffbf9d"></path><path d="M542.82,180a3.47,3.47,0,0,1-.71-1,3.59,3.59,0,0,1,.14-3.48l.06.22-3.87-1.45.25-.23,1.12,3.17,0-.08a8.48,8.48,0,0,1,1.18,1.51,4.15,4.15,0,0,1,.57,2,4,4,0,0,1-2.32,3.57,3.84,3.84,0,0,1-2.32.31,5.82,5.82,0,0,1-1.14-.35c-.36-.13-.72-.29-1.08-.45a19,19,0,0,1-4.1-2.55,15.83,15.83,0,0,1-2.37-2.33l.18.1a8.8,8.8,0,0,1-5-2.14,6.42,6.42,0,0,1-2-4.54l.17.23a9.66,9.66,0,0,1-3.14-1.58,4.63,4.63,0,0,1-1.12-1.22,3.8,3.8,0,0,1-.36-1.56,26.11,26.11,0,0,1,.45-5.09c.24-1.4.47-2.49.64-3.23a8.46,8.46,0,0,1,.31-1.13,7.4,7.4,0,0,1-.16,1.16c-.13.75-.32,1.84-.52,3.24a27.55,27.55,0,0,0-.34,5,3.41,3.41,0,0,0,.32,1.37,4.37,4.37,0,0,0,1,1.11,9.65,9.65,0,0,0,3,1.47l.17.05v.18a6.06,6.06,0,0,0,1.91,4.16,8.39,8.39,0,0,0,4.69,2l.11,0,.07.08a15.61,15.61,0,0,0,2.28,2.24,18.71,18.71,0,0,0,4,2.48c.35.16.7.31,1.06.45a6.14,6.14,0,0,0,1,.33,3.43,3.43,0,0,0,2-.27,3.52,3.52,0,0,0,2.06-3.12,4.81,4.81,0,0,0-1.59-3.19l0,0,0,0-1.07-3.19-.13-.38.37.15,3.83,1.53.17.06-.1.15a3.28,3.28,0,0,0-.53,1.83,3.52,3.52,0,0,0,.3,1.42C542.57,179.62,542.86,180,542.82,180Z" style="fill:#ff9a6c"></path><path d="M552.22,165.08a8.19,8.19,0,0,1-1.44-.21l-3.88-.77-5.74-1.2-3.38-.72a10.61,10.61,0,0,0-3.58-.4,3.6,3.6,0,0,0-2.7,2,14.45,14.45,0,0,0-1.19,3.18,44.24,44.24,0,0,0-1.12,5.72c-.22,1.65-.35,3-.46,3.92a7.44,7.44,0,0,1-.22,1.43,8,8,0,0,1,0-1.45c0-.93.12-2.28.3-3.95a38.72,38.72,0,0,1,1-5.8,13.79,13.79,0,0,1,1.21-3.3,4.76,4.76,0,0,1,1.22-1.48,3.86,3.86,0,0,1,1.84-.77,11,11,0,0,1,3.77.42l3.38.76,5.71,1.3,3.85.93A7.19,7.19,0,0,1,552.22,165.08Z" style="fill:#ff9a6c"></path><path d="M547.5,158.92a9.76,9.76,0,0,1-1.48-.3l-4-1c-1.68-.4-3.68-.86-5.92-1.29-1.12-.21-2.3-.42-3.52-.57a8.39,8.39,0,0,0-3.69.22,5.91,5.91,0,0,0-2.83,2.26,13.54,13.54,0,0,0-1.58,3.13,49.31,49.31,0,0,0-1.72,5.79c-.39,1.67-.63,3.05-.79,4a9.28,9.28,0,0,1-.28,1.47,7.36,7.36,0,0,1,.08-1.5c.1-1,.28-2.35.63-4a44.19,44.19,0,0,1,1.63-5.87,13.71,13.71,0,0,1,1.61-3.26,6.3,6.3,0,0,1,3.08-2.46,8.81,8.81,0,0,1,3.93-.24c1.24.17,2.42.39,3.54.61,2.25.45,4.25,1,5.92,1.4s3,.85,3.93,1.13A7.57,7.57,0,0,1,547.5,158.92Z" style="fill:#ff9a6c"></path><path d="M558.78,162.17c-.09.13-1.53-1-3.61-1.71s-3.88-.81-3.87-1a9,9,0,0,1,7.48,2.67Z" style="fill:#ff9a6c"></path><path d="M532.65,151.34a5,5,0,0,1-1.13,0,25.83,25.83,0,0,0-3,0,9.17,9.17,0,0,0-4.19,1.28,5.53,5.53,0,0,0-1.8,1.8,9.6,9.6,0,0,0-1,2.59c-.92,3.81-1.51,7.33-1.89,9.88-.18,1.19-.32,2.2-.44,3a6,6,0,0,1-.21,1.11,4,4,0,0,1,0-1.13c0-.72.12-1.76.27-3a85.3,85.3,0,0,1,1.76-10,9.59,9.59,0,0,1,1.1-2.73,6.07,6.07,0,0,1,2-1.94,9.27,9.27,0,0,1,4.43-1.24,19.55,19.55,0,0,1,3.07.15A4.54,4.54,0,0,1,532.65,151.34Z" style="fill:#ff9a6c"></path><path d="M546.84,155a25.3,25.3,0,0,1-6.94-1.77,12.42,12.42,0,0,1,3.53.63A12.61,12.61,0,0,1,546.84,155Z" style="fill:#ff9a6c"></path><path d="M521.75,173.84a30.21,30.21,0,0,0-4.19,2.34,29.83,29.83,0,0,0-3.39,3.4,10.18,10.18,0,0,1,7.58-5.74Z" style="fill:#ff9a6c"></path><path d="M517.44,169.52s-.33.4-1.05.79a6.32,6.32,0,0,1-3.1.74,8.53,8.53,0,0,1-3.09-.71c-.74-.33-1.16-.61-1.13-.67s1.87.76,4.23.86S517.36,169.35,517.44,169.52Z" style="fill:#ff9a6c"></path><path d="M547.58,182.43a38.32,38.32,0,0,0-4.35.7,19,19,0,0,0-14.05,14.35,38.37,38.37,0,0,0-.6,4.36,4.7,4.7,0,0,1-.09-1.19,16.72,16.72,0,0,1,.33-3.25,18.59,18.59,0,0,1,14.32-14.63,16.88,16.88,0,0,1,3.24-.4A4.75,4.75,0,0,1,547.58,182.43Z" style="fill:#ff9a6c"></path><path d="M552.33,211.78a8.81,8.81,0,0,1-2.65.52,23.46,23.46,0,0,1-6.53-.27,23.88,23.88,0,0,1-6.21-2,9.25,9.25,0,0,1-2.3-1.42c0-.07.94.43,2.46,1.08a28,28,0,0,0,12.55,2.27C551.3,211.86,552.32,211.7,552.33,211.78Z" style="fill:#ff9a6c"></path><path d="M516,270.21l-48.58-37.44s-9.18-21.71-19.33-21.55v88.36l44.63,26.67c3.78,2.64,21.23,13.27,37.58,16.3,8.9,1.65,21.69-1.9,26.37-9.63,1.35-2.23,5.24-11.91,5.59-14.74,1.42-11.31,4.19-97.67,4.19-97.67l-48.6-9.34Z" style="fill:#455a64"></path><path d="M521.74,324.69a2.13,2.13,0,0,1-.38-.47c-.27-.36-.6-.83-1-1.4l-.72-1c-.25-.39-.49-.82-.77-1.28-.53-.92-1.2-1.94-1.77-3.16-.3-.6-.62-1.23-.94-1.89s-.59-1.38-.9-2.1c-.65-1.45-1.16-3.06-1.73-4.75a61.69,61.69,0,0,1-2.28-11.33,62.54,62.54,0,0,1,.06-11.56c.24-1.77.42-3.45.79-5,.16-.77.28-1.53.47-2.24s.39-1.38.56-2c.33-1.31.79-2.44,1.13-3.45.19-.5.34-1,.52-1.4l.5-1.14c.3-.64.54-1.16.72-1.57a2,2,0,0,1,.29-.53,3.59,3.59,0,0,1-.19.57c-.16.42-.37.95-.63,1.61-.14.35-.3.74-.46,1.15s-.3.9-.47,1.41c-.32,1-.75,2.14-1,3.44-.17.65-.34,1.33-.53,2s-.28,1.46-.44,2.23c-.34,1.54-.51,3.21-.73,5a58.33,58.33,0,0,0,2.2,22.7c.56,1.68,1,3.28,1.67,4.72.3.73.55,1.44.86,2.1l.91,1.89c.54,1.23,1.18,2.25,1.69,3.19.26.46.49.9.73,1.28l.68,1,.92,1.45A3.27,3.27,0,0,1,521.74,324.69Z" style="fill:#263238"></path><path d="M458,236.87a1.83,1.83,0,0,1,0,.38c0,.29,0,.66-.05,1.14-.05,1-.13,2.48-.24,4.35-.23,3.81-.57,9.27-1,16-.88,13.54-2.1,32.19-3.44,52.79s-2.67,39.25-3.59,52.78c-.49,6.73-.88,12.18-1.15,16-.15,1.86-.26,3.32-.34,4.34,0,.48-.08.85-.1,1.13s0,.39,0,.39a2.29,2.29,0,0,1,0-.39l.05-1.13c.06-1,.14-2.49.25-4.35.23-3.81.56-9.27,1-16,.88-13.53,2.1-32.18,3.44-52.79s2.67-39.24,3.59-52.77c.49-6.73.88-12.19,1.15-16,.15-1.87.26-3.33.34-4.35,0-.48.08-.85.1-1.13A2.91,2.91,0,0,1,458,236.87Z" style="fill:#263238"></path><g style="opacity:0.30000000000000004"><path d="M516.08,313.6a54.57,54.57,0,0,1-4.65-17.07c-.91-6.87.38-17.33,3-23.74-8.86,12.68-11.65,30.74-5.69,45,.76,1.82,2,3.84,4,4,1.72.11,3.2-1.41,3.64-3.07A8,8,0,0,0,516.08,313.6Z"></path></g><path d="M384.54,156.27c3.41-10.07,6.78-20.22,8.41-30.73s1.44-21.49-2.14-31.51c-.54-1.52-5.21-11.71-6.81-11.58-1.15.1,1.68,9.6,1.09,10.59-5.65,9.43-7.3,20.84-6.55,31.82a143.83,143.83,0,0,0,6,31.41" style="fill:#263238"></path><path d="M346.09,65.7l-2.47.1a47.69,47.69,0,0,0-45.69,45.77c-.9,23.11-1.61,48.64-.94,61C298.36,198.12,324.1,201,324.1,201s.11,10.78.11,10.78l25.47,17,33.46-36,2.95-77.08C387.28,89.06,372.76,66.15,346.09,65.7Z" style="fill:#ffbf9d"></path><path d="M324.1,201s16.16.28,32.89-11.22c0,0-7.21,19.56-32.83,18.31Z" style="fill:#ff9a6c"></path><path d="M309.73,132.93a3.66,3.66,0,0,0,3.67,3.54A3.5,3.5,0,0,0,317,133a3.65,3.65,0,0,0-3.67-3.54A3.49,3.49,0,0,0,309.73,132.93Z" style="fill:#263238"></path><path d="M303.84,122.64c.47.46,3.15-1.7,7.08-1.86s6.9,1.7,7.3,1.2c.2-.22-.29-1.06-1.59-1.93a10.11,10.11,0,0,0-5.87-1.54,9.63,9.63,0,0,0-5.61,2.07C304,121.56,303.61,122.44,303.84,122.64Z" style="fill:#263238"></path><path d="M345,132.93a3.65,3.65,0,0,0,3.67,3.54,3.51,3.51,0,0,0,3.63-3.45,3.65,3.65,0,0,0-3.67-3.54A3.49,3.49,0,0,0,345,132.93Z" style="fill:#263238"></path><path d="M342.4,122c.47.46,3.16-1.7,7.09-1.86s6.89,1.7,7.29,1.2c.2-.22-.29-1.06-1.59-1.92a10,10,0,0,0-5.86-1.55,9.63,9.63,0,0,0-5.62,2.07C342.55,120.88,342.17,121.76,342.4,122Z" style="fill:#263238"></path><path d="M329.55,152.74c0-.22-2.45-.54-6.43-.89-1-.06-2-.22-2.16-.9s.1-1.81.54-3c.85-2.47,1.73-5,2.65-7.76,3.68-11.05,6.29-20.12,5.84-20.27s-3.78,8.7-7.45,19.75c-.88,2.72-1.73,5.32-2.53,7.8-.33,1.16-.93,2.48-.36,4a2.52,2.52,0,0,0,1.71,1.4,6.93,6.93,0,0,0,1.72.17C327.07,153.05,329.54,153,329.55,152.74Z" style="fill:#263238"></path><path d="M340.62,109.72c.58,1,4.35-.23,9-.52s8.54.26,9-.79c.19-.5-.64-1.37-2.3-2.12a15.63,15.63,0,0,0-13.68,1C341.05,108.27,340.36,109.25,340.62,109.72Z" style="fill:#263238"></path><path d="M303.18,111.09c.84.87,4-.14,7.87-.28s7.12.41,7.85-.54c.31-.47-.22-1.35-1.67-2.15a12.29,12.29,0,0,0-6.43-1.3,12.16,12.16,0,0,0-6.23,2C303.23,109.74,302.81,110.67,303.18,111.09Z" style="fill:#263238"></path><path d="M384.78,134.73c.43-.2,17.36-5.92,17.52,11.59s-17.45,14.06-17.48,13.56S384.78,134.73,384.78,134.73Z" style="fill:#ffbf9d"></path><path d="M390.1,153.19c.08-.05.31.21.83.44a3,3,0,0,0,2.28,0c1.84-.7,3.37-3.65,3.43-6.8a10,10,0,0,0-.9-4.36,3.51,3.51,0,0,0-2.31-2.32,1.56,1.56,0,0,0-1.8.85c-.23.49-.11.84-.2.87s-.38-.29-.25-1a2,2,0,0,1,.68-1.11,2.34,2.34,0,0,1,1.68-.46,4.3,4.3,0,0,1,3.22,2.69,10.49,10.49,0,0,1,1.1,4.87c-.08,3.53-1.86,6.84-4.38,7.6a3.26,3.26,0,0,1-2.79-.44C390.14,153.61,390,153.22,390.1,153.19Z" style="fill:#ff9a6c"></path><path d="M309.24,82.56c-2.83-1.56,5.67-10.74,12.63-13.9,10.52-4.78,26.59-7.73,36.3-5,11.68,3.31,21.39,9.12,27.26,19.75s8.08,23,7.75,35.15c-.1,3.71-.49,7.57-2.46,10.7-2.44,3.87-7.14,6.31-6.93,11.65a7.34,7.34,0,0,1-1.81,5.35c-3.2,3.41-7.13.21-8.93-3-3.85-6.86-4.28-15-4.63-22.9-.24-5.58-.47-11.29,1.1-16.65.86-2.92,2.23-5.68,2.92-8.64s.6-6.32-1.24-8.74a11.15,11.15,0,0,0-1.43-1.44,18.26,18.26,0,0,0-18.11-3.44C341.8,85,325,90.18,320.57,86.83c-6.33-4.81-7.85-8-7.85-8Z" style="fill:#263238"></path><path d="M341.89,155.18c-.6,0-.62,4-4.08,6.82s-7.73,2.37-7.76,2.93c-.06.26.95.79,2.76.85a10,10,0,0,0,6.48-2.23,8.72,8.72,0,0,0,3.16-5.72C342.61,156.15,342.17,155.15,341.89,155.18Z" style="fill:#263238"></path></g></svg>
